<svg xmlns="http://www.w3.org/2000/svg" viewBox="0 0 24 24" style="enable-background:new 0 0 24 24" xml:space="preserve"><path class="st0" d="M13.2 2.3h2.7c1 .1 1.8.2 2.4.5.7.3 1.2.6 1.7 1.2.6.6.9 1 1.1 1.7.3.7.5 1.3.5 2.4 0 .2 0 .4.1.6V12c0 1.9 0 2.5-.1 3.2v.8c-.1 1-.2 1.8-.5 2.4-.2.6-.5 1.1-1.1 1.6-.6.6-1 .9-1.7 1.1-.7.3-1.3.5-2.4.5-.2 0-.4 0-.6.1H12c-1.9 0-2.5 0-3.2-.1H8c-1-.1-1.8-.2-2.4-.5-.6-.2-1.1-.5-1.6-1.1-.6-.6-.9-1-1.1-1.7-.3-.6-.5-1.3-.5-2.3-.1-.8-.1-1.2-.1-2.5v-1.7c0-1.7 0-2.3.1-2.9v-.8c.1-1 .2-1.8.5-2.4C3.1 5 3.4 4.5 4 4c.6-.6 1-.9 1.7-1.1.6-.3 1.3-.5 2.3-.5h5.2zm0 1.7h-2.5c-1.4 0-1.8 0-2.6.1-.9 0-1.4.2-1.8.3-.4.2-.7.3-1.1.7-.4.4-.6.7-.8 1.2-.1.4-.3.9-.3 1.8-.1.8-.1 1.2-.1 2.6v1.2c0 1.8 0 2.4.1 3v.8c0 .9.2 1.4.3 1.8.2.5.4.8.8 1.1.4.4.7.6 1.1.8.4.1.9.3 1.8.3.8.1 1.2.1 2.6.1h1.2c2.6 0 2.8-.1 3.9-.1.9 0 1.4-.2 1.8-.3.5-.2.8-.4 1.1-.8.4-.4.6-.7.8-1.1.1-.4.3-.9.3-1.8.1-.8.1-1.2.1-2.6v-1.5c0-1.6-.1-2.3-.1-2.8v-.7c0-.9-.2-1.4-.3-1.8-.2-.5-.4-.8-.8-1.1-.4-.4-.7-.6-1.1-.8-.4-.1-.9-.3-1.8-.3C15 4 14.7 4 13.2 4zM12 7.1c2.7 0 4.9 2.1 4.9 4.9s-2.1 4.9-4.9 4.9-4.9-2.2-4.9-4.9S9.3 7.1 12 7.1zm0 1.7c-1.8 0-3.2 1.4-3.2 3.2 0 1.8 1.4 3.2 3.2 3.2s3.2-1.5 3.2-3.2c0-1.8-1.4-3.2-3.2-3.2zm5.2-3.1c.6 0 1 .5 1 1s-.5 1-1 1-1-.5-1-1 .4-1 1-1z"/></svg>
